# xmcd
#
# Track frame offsets:
#	150
#	15525
#	36900
#	53287
#	70462
#	84937
#	99974
#	113999
#	128474
#	145461
#	164286
#	182211
#	195373
#	211385
#
# Disc length: 3067 seconds
#
# Revision: 1
# Processed by: cddbd v1.5.2PL0 Copyright (c) Steve Scherf et al.
# Submitted via: audiograbber 1.83.01
#
DISCID=b40bf90e
DTITLE=Diverse - Ohrwürmer 3
DYEAR=2007
DGENRE=Theken Hits
TTITLE0=The Modern Art Of Talking - Tribute to Modern Talking
TTITLE1=Die Inselfeger - Carpendale Medley
TTITLE2=70er Medley - Die Sommerparty
TTITLE3=L-A. Williams - Tribute to Belafonte
TTITLE4=J. James - Trini let´s twist
TTITLE5=Christian König - Tanze mit mir in den Morgen
TTITLE6=Ulli Bastian - Fiesta Mexicana
TTITLE7=Michael Schön - Marina
TTITLE8=Christian König - Ein Bett im Kornfeld
TTITLE9=Christian König - Sommer in der Stadt
TTITLE10=Peter Strauss - Griechsicher Wein
TTITLE11=Ellen Krenz - Er gehört zu mir
TTITLE12=Die Diamonds - Aber dich gibts nur einmal für mich
TTITLE13=Anna Kaast - Andrea Berg Partymix
EXTD=
EXTT0=
EXTT1=
EXTT2=
EXTT3=
EXTT4=
EXTT5=
EXTT6=
EXTT7=
EXTT8=
EXTT9=
EXTT10=
EXTT11=
EXTT12=
EXTT13=
PLAYORDER=
